<?xml version='1.0' encoding='UTF-8' standalone='no'?>
<svg
  xmlns:dc="http://purl.org/dc/elements/1.1/"
  xmlns:cc="http://creativecommons.org/ns#"
  xmlns:rdf="http://www.w3.org/1999/02/22-rdf-syntax-ns#"
  xmlns:svg="http://www.w3.org/2000/svg"
  xmlns="http://www.w3.org/2000/svg"
  viewBox="0 0 2254.1204 1000.1496"
  xml:space="preserve"
  gorn="0"
  version="1.1"
  width="2.2541196in"
  y="0px"
  enable-background="new 0 0 141 72"
  id="Layer_1"
  x="0px"
  height="1.0001493in">
  <metadata
    id="metadata1090">
    <rdf:RDF>
      <cc:Work
        rdf:about="">
        <dc:format>image/svg+xml</dc:format>
        <dc:type
          rdf:resource="http://purl.org/dc/dcmitype/StillImage"
        />
        <dc:title/>
      </cc:Work>
    </rdf:RDF>
  </metadata>
  <defs
    id="defs1088">
        </defs>
  <desc
    id="desc3">
    <referenceFile>lolind32_3811719cf9fbc3f9ebb81740cfc0839d_2_breadboard.svg</referenceFile>
  </desc>
  <g
    id="breadboard">
    <path
      gorn="0.3.2"
      id="path7"
      d="M 82.161238,1000.1495 H 2161.9862 c 45.3551,0 82.1119,-31.47206 82.1119,-70.32048 V 70.458968 c 0,-38.819814 -36.7568,-70.30632984 -82.1119,-70.30632984 H 82.161238 C 36.789577,0.15263816 0,31.653043 0,70.458968 V 929.84291 c 0,38.83453 36.789577,70.30659 82.161238,70.30659 z M 2136.8965,974.88575 c -38.5946,0 -69.8871,-26.72349 -69.8871,-59.65388 0,-32.91651 31.2596,-59.62611 69.8871,-59.62611 38.6437,0 69.9198,26.69571 69.9198,59.62611 0,32.91651 -31.2761,59.65388 -69.9198,59.65388 z M 2126.392,81.889608 Z M 101.86874,22.291838 c 38.62749,0 69.90346,26.666955 69.90346,59.59777 0,32.958732 -31.25958,59.709022 -69.90346,59.709022 -38.610971,0 -69.88708,-26.75029 -69.88708,-59.709022 0,-32.930815 31.292498,-59.59777 69.88708,-59.59777 z m 0,833.313922 c 38.62749,0 69.90346,26.7096 69.90346,59.62611 0,32.91651 -31.25958,59.63999 -69.90346,59.63999 -38.610971,0 -69.88708,-26.7096 -69.88708,-59.63999 0,-32.90262 31.292498,-59.62611 69.88708,-59.62611 z"
      fill="#1e2c5c"
      stroke-width="13.88885498"
    />
    <rect
      gorn="0.3.3"
      width="51.569443"
      y="896.98224"
      id="rect9"
      x="225.80554"
      height="103.16618"
      fill="#454545"
      stroke-width="13.88885498"
    />
    <polygon
      id="polygon11"
      points="16.258,71.998 14.4,70.141 14.4,66.428 16.258,64.572 "
      gorn="0.3.4.0"
      transform="matrix(13.888888,0,0,13.888822,0,0.15347149)"
      fill="#454545"
    />
    <polygon
      id="polygon13"
      points="21.829,70.141 19.97,71.998 19.97,64.572 21.829,66.428 "
      gorn="0.3.5.0"
      transform="matrix(13.888888,0,0,13.888822,0,0.15347149)"
      fill="#454545"
    />
    <rect
      gorn="0.3.6"
      width="18.222221"
      y="936.94141"
      id="connector0pin"
      x="242.47221"
      height="23.166555"
      fill="#b68b2d"
      stroke-width="13.88885498"
    />
    <rect
      gorn="0.3.7"
      width="51.569443"
      y="896.98224"
      id="rect16"
      x="325.80554"
      height="103.16618"
      fill="#454545"
      stroke-width="13.88885498"
    />
    <polygon
      id="polygon18"
      points="23.458,71.998 21.6,70.141 21.6,66.428 23.458,64.572 "
      gorn="0.3.8.0"
      transform="matrix(13.888888,0,0,13.888822,0,0.15347149)"
      fill="#454545"
    />
    <polygon
      id="polygon20"
      points="29.029,70.141 27.17,71.998 27.17,64.572 29.029,66.428 "
      gorn="0.3.9.0"
      transform="matrix(13.888888,0,0,13.888822,0,0.15347149)"
      fill="#454545"
    />
    <rect
      gorn="0.3.10"
      width="18.222221"
      y="936.94141"
      id="connector1pin"
      x="342.47223"
      height="23.166555"
      fill="#b68b2d"
      stroke-width="13.88885498"
    />
    <rect
      gorn="0.3.11"
      width="51.569443"
      y="896.98224"
      id="rect23"
      x="425.80554"
      height="103.16618"
      fill="#454545"
      stroke-width="13.88885498"
    />
    <polygon
      id="polygon25"
      points="30.658,71.998 28.8,70.141 28.8,66.428 30.658,64.572 "
      gorn="0.3.12.0"
      transform="matrix(13.888888,0,0,13.888822,0,0.15347149)"
      fill="#454545"
    />
    <polygon
      id="polygon27"
      points="36.229,70.141 34.37,71.998 34.37,64.572 36.229,66.428 "
      gorn="0.3.13.0"
      transform="matrix(13.888888,0,0,13.888822,0,0.15347149)"
      fill="#454545"
    />
    <rect
      gorn="0.3.14"
      width="18.222221"
      y="936.94141"
      id="connector2pin"
      x="442.4722"
      height="23.166555"
      fill="#b68b2d"
      stroke-width="13.88885498"
    />
    <rect
      gorn="0.3.15"
      width="51.569443"
      y="896.98224"
      id="rect30"
      x="525.80554"
      height="103.16618"
      fill="#454545"
      stroke-width="13.88885498"
    />
    <polygon
      id="polygon32"
      points="37.858,71.998 36,70.141 36,66.428 37.858,64.572 "
      gorn="0.3.16.0"
      transform="matrix(13.888888,0,0,13.888822,0,0.15347149)"
      fill="#454545"
    />
    <polygon
      id="polygon34"
      points="43.429,70.141 41.57,71.998 41.57,64.572 43.429,66.428 "
      gorn="0.3.17.0"
      transform="matrix(13.888888,0,0,13.888822,0,0.15347149)"
      fill="#454545"
    />
    <rect
      gorn="0.3.18"
      width="18.222221"
      y="936.94141"
      id="connector3pin"
      x="542.48608"
      height="23.166555"
      fill="#b68b2d"
      stroke-width="13.88885498"
    />
    <rect
      gorn="0.3.19"
      width="51.569443"
      y="896.98224"
      id="rect37"
      x="625.80554"
      height="103.16618"
      fill="#454545"
      stroke-width="13.88885498"
    />
    <polygon
      id="polygon39"
      points="45.058,71.998 43.2,70.141 43.2,66.428 45.058,64.572 "
      gorn="0.3.20.0"
      transform="matrix(13.888888,0,0,13.888822,0,0.15347149)"
      fill="#454545"
    />
    <polygon
      id="polygon41"
      points="50.629,70.141 48.77,71.998 48.77,64.572 50.629,66.428 "
      gorn="0.3.21.0"
      transform="matrix(13.888888,0,0,13.888822,0,0.15347149)"
      fill="#454545"
    />
    <rect
      gorn="0.3.22"
      width="18.222221"
      y="936.94141"
      id="connector4pin"
      x="642.47217"
      height="23.166555"
      fill="#b68b2d"
      stroke-width="13.88885498"
    />
    <rect
      gorn="0.3.23"
      width="51.569443"
      y="896.98224"
      id="rect44"
      x="725.80554"
      height="103.16618"
      fill="#454545"
      stroke-width="13.88885498"
    />
    <polygon
      id="polygon46"
      points="52.258,71.998 50.4,70.141 50.4,66.428 52.258,64.572 "
      gorn="0.3.24.0"
      transform="matrix(13.888888,0,0,13.888822,0,0.15347149)"
      fill="#454545"
    />
    <polygon
      id="polygon48"
      points="57.829,70.141 55.97,71.998 55.97,64.572 57.829,66.428 "
      gorn="0.3.25.0"
      transform="matrix(13.888888,0,0,13.888822,0,0.15347149)"
      fill="#454545"
    />
    <rect
      gorn="0.3.26"
      width="18.222221"
      y="936.94141"
      id="connector5pin"
      x="742.47223"
      height="23.166555"
      fill="#b68b2d"
      stroke-width="13.88885498"
    />
    <rect
      gorn="0.3.27"
      width="51.569443"
      y="896.98224"
      id="rect51"
      x="825.80554"
      height="103.16618"
      fill="#454545"
      stroke-width="13.88885498"
    />
    <polygon
      id="polygon53"
      points="59.458,71.998 57.601,70.141 57.601,66.428 59.458,64.572 "
      gorn="0.3.28.0"
      transform="matrix(13.888888,0,0,13.888822,0,0.15347149)"
      fill="#454545"
    />
    <polygon
      id="polygon55"
      points="65.029,70.141 63.17,71.998 63.17,64.572 65.029,66.428 "
      gorn="0.3.29.0"
      transform="matrix(13.888888,0,0,13.888822,0,0.15347149)"
      fill="#454545"
    />
    <rect
      gorn="0.3.30"
      width="18.222221"
      y="936.94141"
      id="connector6pin"
      x="842.48608"
      height="23.166555"
      fill="#b68b2d"
      stroke-width="13.88885498"
    />
    <rect
      gorn="0.3.31"
      width="51.569443"
      y="896.98224"
      id="rect58"
      x="925.81934"
      height="103.16618"
      fill="#454545"
      stroke-width="13.88885498"
    />
    <polygon
      id="polygon60"
      points="64.801,70.141 64.801,66.428 66.659,64.572 66.659,71.998 "
      gorn="0.3.32.0"
      transform="matrix(13.888888,0,0,13.888822,-6.0135452,0.15347149)"
      fill="#454545"
    />
    <polygon
      id="polygon62"
      points="72.229,70.141 70.371,71.998 70.371,64.572 72.229,66.428 "
      gorn="0.3.33.0"
      transform="matrix(13.888888,0,0,13.888822,0,0.15347149)"
      fill="#454545"
    />
    <rect
      gorn="0.3.34"
      width="18.222221"
      y="936.94141"
      id="connector7pin"
      x="942.48608"
      height="23.166555"
      fill="#b68b2d"
      stroke-width="13.88885498"
    />
    <rect
      gorn="0.3.35"
      width="51.569443"
      y="896.98224"
      id="rect65"
      x="1025.7916"
      height="103.16618"
      fill="#454545"
      stroke-width="13.88885498"
    />
    <polygon
      id="polygon67"
      points="73.857,71.998 72,70.141 72,66.428 73.857,64.572 "
      gorn="0.3.36.0"
      transform="matrix(13.888888,0,0,13.888822,0,0.15347149)"
      fill="#454545"
    />
    <polygon
      id="polygon69"
      points="79.43,70.141 77.568,71.998 77.568,64.572 79.43,66.428 "
      gorn="0.3.37.0"
      transform="matrix(13.888888,0,0,13.888822,0,0.15347149)"
      fill="#454545"
    />
    <rect
      gorn="0.3.38"
      width="18.222221"
      y="936.94141"
      id="connector8pin"
      x="1042.4861"
      height="23.166555"
      fill="#b68b2d"
      stroke-width="13.88885498"
    />
    <rect
      gorn="0.3.39"
      width="51.569443"
      y="896.98224"
      id="rect72"
      x="1125.8193"
      height="103.16618"
      fill="#454545"
      stroke-width="13.88885498"
    />
    <polygon
      id="polygon74"
      points="81.059,71.998 79.2,70.141 79.2,66.428 81.059,64.572 "
      gorn="0.3.40.0"
      transform="matrix(13.888888,0,0,13.888822,0,0.15347149)"
      fill="#454545"
    />
    <polygon
      id="polygon76"
      points="86.63,70.141 84.771,71.998 84.771,64.572 86.63,66.428 "
      gorn="0.3.41.0"
      transform="matrix(13.888888,0,0,13.888822,0,0.15347149)"
      fill="#454545"
    />
    <rect
      gorn="0.3.42"
      width="18.222221"
      y="936.94141"
      id="connector9pin"
      x="1142.4861"
      height="23.166555"
      fill="#b68b2d"
      stroke-width="13.88885498"
    />
    <rect
      gorn="0.3.43"
      width="51.583332"
      y="896.98224"
      id="rect79"
      x="1225.8195"
      height="103.16618"
      fill="#454545"
      stroke-width="13.88885498"
    />
    <polygon
      id="polygon81"
      points="88.259,71.998 86.4,70.141 86.4,66.428 88.259,64.572 "
      gorn="0.3.44.0"
      transform="matrix(13.888888,0,0,13.888822,0,0.15347149)"
      fill="#454545"
    />
    <polygon
      id="polygon83"
      points="93.829,70.141 91.971,71.998 91.971,64.572 93.829,66.428 "
      gorn="0.3.45.0"
      transform="matrix(13.888888,0,0,13.888822,0,0.15347149)"
      fill="#454545"
    />
    <rect
      gorn="0.3.46"
      width="18.222221"
      y="936.94141"
      id="connector10pin"
      x="1242.4722"
      height="23.166555"
      fill="#b68b2d"
      stroke-width="13.88885498"
    />
    <rect
      gorn="0.3.47"
      width="51.569443"
      y="896.98224"
      id="rect86"
      x="1325.8055"
      height="103.16618"
      fill="#454545"
      stroke-width="13.88885498"
    />
    <polygon
      id="polygon88"
      points="95.458,71.998 93.602,70.141 93.602,66.428 95.458,64.572 "
      gorn="0.3.48.0"
      transform="matrix(13.888888,0,0,13.888822,0,0.15347149)"
      fill="#454545"
    />
    <polygon
      id="polygon90"
      points="101.029,70.141 99.171,71.998 99.171,64.572 101.029,66.428 "
      gorn="0.3.49.0"
      transform="matrix(13.888888,0,0,13.888822,0,0.15347149)"
      fill="#454545"
    />
    <rect
      gorn="0.3.50"
      width="18.222221"
      y="936.94141"
      id="connector11pin"
      x="1342.486"
      height="23.166555"
      fill="#b68b2d"
      stroke-width="13.88885498"
    />
    <rect
      gorn="0.3.51"
      width="51.569443"
      y="896.98224"
      id="rect93"
      x="1425.8193"
      height="103.16618"
      fill="#454545"
      stroke-width="13.88885498"
    />
    <polygon
      id="polygon95"
      points="102.659,71.998 100.8,70.141 100.8,66.428 102.659,64.572 "
      gorn="0.3.52.0"
      transform="matrix(13.888888,0,0,13.888822,0,0.15347149)"
      fill="#454545"
    />
    <polygon
      id="polygon97"
      points="108.229,70.141 106.37,71.998 106.37,64.572 108.229,66.428 "
      gorn="0.3.53.0"
      transform="matrix(13.888888,0,0,13.888822,0,0.15347149)"
      fill="#454545"
    />
    <rect
      gorn="0.3.54"
      width="18.222221"
      y="936.94141"
      id="connector12pin"
      x="1442.4584"
      height="23.166555"
      fill="#b68b2d"
      stroke-width="13.88885498"
    />
    <rect
      gorn="0.3.55"
      width="51.569443"
      y="896.98224"
      id="rect101"
      x="1525.7916"
      height="103.16618"
      fill="#454545"
      stroke-width="13.88885498"
    />
    <polygon
      id="polygon103"
      points="109.857,71.998 108.001,70.141 108.001,66.428 109.857,64.572 "
      gorn="0.3.56.0"
      transform="matrix(13.888888,0,0,13.888822,0,0.15347149)"
      fill="#454545"
    />
    <polygon
      id="polygon105"
      points="115.43,70.141 113.57,71.998 113.57,64.572 115.43,66.428 "
      gorn="0.3.57.0"
      transform="matrix(13.888888,0,0,13.888822,0,0.15347149)"
      fill="#454545"
    />
    <rect
      gorn="0.3.58"
      width="18.222221"
      y="936.94141"
      id="connector13pin"
      x="1542.5138"
      height="23.166555"
      fill="#b68b2d"
      stroke-width="13.88885498"
    />
    <rect
      gorn="0.3.59"
      width="51.569443"
      y="896.98224"
      id="rect108"
      x="1625.8472"
      height="103.16618"
      fill="#454545"
      stroke-width="13.88885498"
    />
    <polygon
      id="polygon110"
      points="117.061,71.998 115.2,70.141 115.2,66.428 117.061,64.572 "
      gorn="0.3.60.0"
      transform="matrix(13.888888,0,0,13.888822,0,0.15347149)"
      fill="#454545"
    />
    <polygon
      id="polygon112"
      points="122.63,70.141 120.771,71.998 120.771,64.572 122.63,66.428 "
      gorn="0.3.61.0"
      transform="matrix(13.888888,0,0,13.888822,0,0.15347149)"
      fill="#454545"
    />
    <rect
      gorn="0.3.62"
      width="18.222221"
      y="936.94141"
      id="connector14pin"
      x="1642.4861"
      height="23.166555"
      fill="#b68b2d"
      stroke-width="13.88885498"
    />
    <rect
      gorn="0.3.63"
      width="51.569443"
      y="0.13933365"
      id="rect115"
      x="222.6111"
      height="103.15228"
      fill="#454545"
      stroke-width="13.88885498"
    />
    <polygon
      id="polygon117"
      points="16.028,7.425 14.17,5.566 14.17,1.854 16.028,-0.001 "
      gorn="0.3.64.0"
      transform="matrix(13.888888,0,0,13.888822,0,0.15347149)"
      fill="#454545"
    />
    <polygon
      id="polygon119"
      points="21.599,5.566 19.74,7.425 19.74,-0.001 21.599,1.854 "
      gorn="0.3.65.0"
      transform="matrix(13.888888,0,0,13.888822,0,0.15347149)"
      fill="#454545"
    />
    <rect
      gorn="0.3.66"
      width="18.222221"
      y="40.084106"
      id="connector33pin"
      x="239.27779"
      height="23.166555"
      fill="#b68b2d"
      stroke-width="13.88885498"
    />
    <rect
      gorn="0.3.67"
      width="51.569443"
      y="0.13933365"
      id="rect122"
      x="322.61111"
      height="103.15228"
      fill="#454545"
      stroke-width="13.88885498"
    />
    <polygon
      id="polygon124"
      points="23.228,7.425 21.37,5.566 21.37,1.854 23.228,-0.001 "
      gorn="0.3.68.0"
      transform="matrix(13.888888,0,0,13.888822,0,0.15347149)"
      fill="#454545"
    />
    <polygon
      id="polygon126"
      points="28.799,5.566 26.94,7.425 26.94,-0.001 28.799,1.854 "
      gorn="0.3.69.0"
      transform="matrix(13.888888,0,0,13.888822,0,0.15347149)"
      fill="#454545"
    />
    <rect
      gorn="0.3.70"
      width="18.222221"
      y="40.084106"
      id="connector32pin"
      x="339.27777"
      height="23.166555"
      fill="#b68b2d"
      stroke-width="13.88885498"
    />
    <rect
      gorn="0.3.71"
      width="51.569443"
      y="0.13933365"
      id="rect129"
      x="422.61108"
      height="103.15228"
      fill="#454545"
      stroke-width="13.88885498"
    />
    <polygon
      id="polygon131"
      points="30.428,7.425 28.57,5.566 28.57,1.854 30.428,-0.001 "
      gorn="0.3.72.0"
      transform="matrix(13.888888,0,0,13.888822,0,0.15347149)"
      fill="#454545"
    />
    <polygon
      id="polygon133"
      points="35.999,5.566 34.14,7.425 34.14,-0.001 35.999,1.854 "
      gorn="0.3.73.0"
      transform="matrix(13.888888,0,0,13.888822,0,0.15347149)"
      fill="#454545"
    />
    <rect
      gorn="0.3.74"
      width="18.222221"
      y="40.084106"
      id="connector31pin"
      x="439.27777"
      height="23.166555"
      fill="#b68b2d"
      stroke-width="13.88885498"
    />
    <rect
      gorn="0.3.75"
      width="51.569443"
      y="0.13933365"
      id="rect136"
      x="522.61108"
      height="103.15228"
      fill="#454545"
      stroke-width="13.88885498"
    />
    <polygon
      id="polygon138"
      points="37.628,7.425 35.771,5.566 35.771,1.854 37.628,-0.001 "
      gorn="0.3.76.0"
      transform="matrix(13.888888,0,0,13.888822,0,0.15347149)"
      fill="#454545"
    />
    <polygon
      id="polygon140"
      points="43.199,5.566 41.34,7.425 41.34,-0.001 43.199,1.854 "
      gorn="0.3.77.0"
      transform="matrix(13.888888,0,0,13.888822,0,0.15347149)"
      fill="#454545"
    />
    <rect
      gorn="0.3.78"
      width="18.222221"
      y="40.084106"
      id="connector30pin"
      x="539.29163"
      height="23.166555"
      fill="#b68b2d"
      stroke-width="13.88885498"
    />
    <rect
      gorn="0.3.79"
      width="51.569443"
      y="0.13933365"
      id="rect143"
      x="622.61108"
      height="103.15228"
      fill="#454545"
      stroke-width="13.88885498"
    />
    <polygon
      id="polygon145"
      points="44.828,7.425 42.97,5.566 42.97,1.854 44.828,-0.001 "
      gorn="0.3.80.0"
      transform="matrix(13.888888,0,0,13.888822,0,0.15347149)"
      fill="#454545"
    />
    <polygon
      id="polygon147"
      points="50.399,5.566 48.54,7.425 48.54,-0.001 50.399,1.854 "
      gorn="0.3.81.0"
      transform="matrix(13.888888,0,0,13.888822,0,0.15347149)"
      fill="#454545"
    />
    <rect
      gorn="0.3.82"
      width="18.222221"
      y="40.084106"
      id="connector29pin"
      x="639.27777"
      height="23.166555"
      fill="#b68b2d"
      stroke-width="13.88885498"
    />
    <rect
      gorn="0.3.83"
      width="51.569443"
      y="0.13933365"
      id="rect150"
      x="722.61108"
      height="103.15228"
      fill="#454545"
      stroke-width="13.88885498"
    />
    <polygon
      id="polygon152"
      points="52.028,7.425 50.17,5.566 50.17,1.854 52.028,-0.001 "
      gorn="0.3.84.0"
      transform="matrix(13.888888,0,0,13.888822,0,0.15347149)"
      fill="#454545"
    />
    <polygon
      id="polygon154"
      points="57.599,5.566 55.74,7.425 55.74,-0.001 57.599,1.854 "
      gorn="0.3.85.0"
      transform="matrix(13.888888,0,0,13.888822,0,0.15347149)"
      fill="#454545"
    />
    <rect
      gorn="0.3.86"
      width="18.222221"
      y="40.084106"
      id="connector28pin"
      x="739.29163"
      height="23.166555"
      fill="#b68b2d"
      stroke-width="13.88885498"
    />
    <rect
      gorn="0.3.87"
      width="51.555553"
      y="0.13933365"
      id="rect157"
      x="822.625"
      height="103.15228"
      fill="#454545"
      stroke-width="13.88885498"
    />
    <polygon
      id="polygon159"
      points="59.229,7.425 57.371,5.566 57.371,1.854 59.229,-0.001 "
      gorn="0.3.88.0"
      transform="matrix(13.888888,0,0,13.888822,0,0.15347149)"
      fill="#454545"
    />
    <polygon
      id="polygon161"
      points="64.799,5.566 62.939,7.425 62.939,-0.001 64.799,1.854 "
      gorn="0.3.89.0"
      transform="matrix(13.888888,0,0,13.888822,0,0.15347149)"
      fill="#454545"
    />
    <rect
      gorn="0.3.90"
      width="18.222221"
      y="40.084106"
      id="connector27pin"
      x="839.30554"
      height="23.166555"
      fill="#b68b2d"
      stroke-width="13.88885498"
    />
    <rect
      gorn="0.3.91"
      width="51.569443"
      y="0.13933365"
      id="rect164"
      x="922.63885"
      height="103.15228"
      fill="#454545"
      stroke-width="13.88885498"
    />
    <polygon
      id="polygon166"
      points="66.43,7.425 64.57,5.566 64.57,1.854 66.43,-0.001 "
      gorn="0.3.92.0"
      transform="matrix(13.888888,0,0,13.888822,0,0.15347149)"
      fill="#454545"
    />
    <polygon
      id="polygon168"
      points="71.999,5.566 70.141,7.425 70.141,-0.001 71.999,1.854 "
      gorn="0.3.93.0"
      transform="matrix(13.888888,0,0,13.888822,0,0.15347149)"
      fill="#454545"
    />
    <rect
      gorn="0.3.94"
      width="18.222221"
      y="40.084106"
      id="connector26pin"
      x="939.29163"
      height="23.166555"
      fill="#b68b2d"
      stroke-width="13.88885498"
    />
    <rect
      gorn="0.3.95"
      width="51.569443"
      y="0.13933365"
      id="rect171"
      x="1022.6111"
      height="103.15228"
      fill="#454545"
      stroke-width="13.88885498"
    />
    <polygon
      id="polygon173"
      points="73.628,7.425 71.771,5.566 71.771,1.854 73.628,-0.001 "
      gorn="0.3.96.0"
      transform="matrix(13.888888,0,0,13.888822,0,0.15347149)"
      fill="#454545"
    />
    <polygon
      id="polygon175"
      points="79.197,5.566 77.34,7.425 77.34,-0.001 79.197,1.854 "
      gorn="0.3.97.0"
      transform="matrix(13.888888,0,0,13.888822,0,0.15347149)"
      fill="#454545"
    />
    <rect
      gorn="0.3.98"
      width="18.222221"
      y="40.084106"
      id="connector25pin"
      x="1039.2778"
      height="23.166555"
      fill="#b68b2d"
      stroke-width="13.88885498"
    />
    <rect
      gorn="0.3.99"
      width="51.569443"
      y="0.13933365"
      id="rect178"
      x="1122.6111"
      height="103.15228"
      fill="#454545"
      stroke-width="13.88885498"
    />
    <polygon
      id="polygon180"
      points="80.828,7.425 78.971,5.566 78.971,1.854 80.828,-0.001 "
      gorn="0.3.100.0"
      transform="matrix(13.888888,0,0,13.888822,0,0.15347149)"
      fill="#454545"
    />
    <polygon
      id="polygon182"
      points="86.398,5.566 84.54,7.425 84.54,-0.001 86.398,1.854 "
      gorn="0.3.101.0"
      transform="matrix(13.888888,0,0,13.888822,0,0.15347149)"
      fill="#454545"
    />
    <rect
      gorn="0.3.102"
      width="18.222221"
      y="40.084106"
      id="connector24pin"
      x="1139.2639"
      height="23.166555"
      fill="#b68b2d"
      stroke-width="13.88885498"
    />
    <rect
      gorn="0.3.103"
      width="51.583332"
      y="0.13933365"
      id="rect185"
      x="1222.5972"
      height="103.15228"
      fill="#454545"
      stroke-width="13.88885498"
    />
    <polygon
      id="polygon187"
      points="88.027,7.425 86.171,5.566 86.171,1.854 88.027,-0.001 "
      gorn="0.3.104.0"
      transform="matrix(13.888888,0,0,13.888822,0,0.15347149)"
      fill="#454545"
    />
    <polygon
      id="polygon189"
      points="93.6,5.566 91.74,7.425 91.74,-0.001 93.6,1.854 "
      gorn="0.3.105.0"
      transform="matrix(13.888888,0,0,13.888822,0,0.15347149)"
      fill="#454545"
    />
    <rect
      gorn="0.3.106"
      width="18.222221"
      y="40.084106"
      id="connector23pin"
      x="1239.2916"
      height="23.166555"
      fill="#b68b2d"
      stroke-width="13.88885498"
    />
    <rect
      gorn="0.3.107"
      width="51.569443"
      y="0.13933365"
      id="rect192"
      x="1322.6249"
      height="103.15228"
      fill="#454545"
      stroke-width="13.88885498"
    />
    <polygon
      id="polygon194"
      points="95.229,7.425 93.37,5.566 93.37,1.854 95.229,-0.001 "
      gorn="0.3.108.0"
      transform="matrix(13.888888,0,0,13.888822,0,0.15347149)"
      fill="#454545"
    />
    <polygon
      id="polygon196"
      points="100.8,5.566 98.939,7.425 98.939,-0.001 100.8,1.854 "
      gorn="0.3.109.0"
      transform="matrix(13.888888,0,0,13.888822,0,0.15347149)"
      fill="#454545"
    />
    <rect
      gorn="0.3.110"
      width="18.222221"
      y="40.084106"
      id="connector22pin"
      x="1339.3055"
      height="23.166555"
      fill="#b68b2d"
      stroke-width="13.88885498"
    />
    <rect
      gorn="0.3.111"
      width="51.569443"
      y="0.13933365"
      id="rect199"
      x="1422.6388"
      height="103.15228"
      fill="#454545"
      stroke-width="13.88885498"
    />
    <polygon
      id="polygon201"
      points="102.43,7.425 100.57,5.566 100.57,1.854 102.43,-0.001 "
      gorn="0.3.112.0"
      transform="matrix(13.888888,0,0,13.888822,0,0.15347149)"
      fill="#454545"
    />
    <polygon
      id="polygon203"
      points="107.999,5.566 106.141,7.425 106.141,-0.001 107.999,1.854 "
      gorn="0.3.113.0"
      transform="matrix(13.888888,0,0,13.888822,0,0.15347149)"
      fill="#454545"
    />
    <rect
      gorn="0.3.114"
      width="18.222221"
      y="40.084106"
      id="connector21pin"
      x="1439.2777"
      height="23.166555"
      fill="#b68b2d"
      stroke-width="13.88885498"
    />
    <rect
      gorn="0.3.115"
      width="51.569443"
      y="0.13933365"
      id="rect206"
      x="1522.6111"
      height="103.15228"
      fill="#454545"
      stroke-width="13.88885498"
    />
    <polygon
      id="polygon208"
      points="109.628,7.425 107.771,5.566 107.771,1.854 109.628,-0.001 "
      gorn="0.3.116.0"
      transform="matrix(13.888888,0,0,13.888822,0,0.15347149)"
      fill="#454545"
    />
    <polygon
      id="polygon210"
      points="115.199,5.566 113.341,7.425 113.341,-0.001 115.199,1.854 "
      gorn="0.3.117.0"
      transform="matrix(13.888888,0,0,13.888822,0,0.15347149)"
      fill="#454545"
    />
    <rect
      gorn="0.3.118"
      width="18.222221"
      y="40.084106"
      id="connector20pin"
      x="1539.2916"
      height="23.166555"
      fill="#b68b2d"
      stroke-width="13.88885498"
    />
    <rect
      gorn="0.3.119"
      width="51.569443"
      y="0.13933365"
      id="rect213"
      x="1622.625"
      height="103.15228"
      fill="#454545"
      stroke-width="13.88885498"
    />
    <polygon
      id="polygon215"
      points="116.829,7.425 114.971,5.566 114.971,1.854 116.829,-0.001 "
      gorn="0.3.120.0"
      transform="matrix(13.888888,0,0,13.888822,0,0.15347149)"
      fill="#454545"
    />
    <polygon
      id="polygon217"
      points="122.398,5.566 120.54,7.425 120.54,-0.001 122.398,1.854 "
      gorn="0.3.121.0"
      transform="matrix(13.888888,0,0,13.888822,0,0.15347149)"
      fill="#454545"
    />
    <rect
      gorn="0.3.122"
      width="18.222221"
      y="40.084106"
      id="connector19pin"
      x="1639.2638"
      height="23.166555"
      fill="#b68b2d"
      stroke-width="13.88885498"
    />
    <text
      font-size="35"
      gorn="0.3.123"
      y="221.30006"
      id="text242"
      x="-91.402939"
      transform="rotate(-90)"
      font-family="OCRA"
      fill="#ffffff">GND</text>
    <text
      font-size="35"
      gorn="0.3.124"
      y="521.30017"
      id="text266"
      x="-76.476685"
      transform="rotate(-90)"
      font-family="OCRA"
      fill="#ffffff">TX</text>
    <text
      font-size="35"
      gorn="0.3.125"
      y="621.30017"
      id="text290"
      x="-76.402939"
      transform="rotate(-90)"
      font-family="OCRA"
      fill="#ffffff">RX</text>
    <text
      font-size="35"
      gorn="0.3.126"
      y="321.30008"
      id="text314"
      x="-76.402939"
      transform="rotate(-90)"
      font-family="OCRA"
      fill="#ffffff">23</text>
    <text
      font-size="35"
      gorn="0.3.127"
      y="421.30014"
      id="text338"
      x="-76.402939"
      transform="rotate(-90)"
      font-family="OCRA"
      fill="#ffffff">22</text>
    <text
      font-size="35"
      gorn="0.3.128"
      y="721.30023"
      id="text362"
      x="-76.402939"
      transform="rotate(-90)"
      font-family="OCRA"
      fill="#ffffff">21</text>
    <text
      font-size="35"
      gorn="0.3.129"
      y="821.30023"
      id="text386"
      x="-76.402939"
      transform="rotate(-90)"
      font-family="OCRA"
      fill="#ffffff">19</text>
    <text
      font-size="35"
      gorn="0.3.130"
      y="921.30029"
      id="text410"
      x="-76.402939"
      transform="rotate(-90)"
      font-family="OCRA"
      fill="#ffffff">18</text>
    <text
      font-size="35"
      gorn="0.3.131"
      y="1021.3003"
      id="text434"
      x="-61.402931"
      transform="rotate(-90)"
      font-family="OCRA"
      fill="#ffffff">5</text>
    <text
      font-size="35"
      gorn="0.3.132"
      y="1121.3003"
      id="text458"
      x="-76.402939"
      transform="rotate(-90)"
      font-family="OCRA"
      fill="#ffffff">17</text>
    <text
      font-size="35"
      gorn="0.3.133"
      y="1221.3004"
      id="text482"
      x="-76.402939"
      transform="rotate(-90)"
      font-family="OCRA"
      fill="#ffffff">16</text>
    <text
      font-size="35"
      gorn="0.3.134"
      y="1321.3004"
      id="text506"
      x="-62.242931"
      transform="rotate(-90)"
      font-family="OCRA"
      fill="#ffffff">4</text>
    <text
      font-size="35"
      gorn="0.3.135"
      y="1421.3004"
      id="text530"
      x="-61.402931"
      transform="rotate(-90)"
      font-family="OCRA"
      fill="#ffffff">8</text>
    <text
      font-size="35"
      gorn="0.3.136"
      y="1521.3005"
      id="text554"
      x="-61.402931"
      transform="rotate(-90)"
      font-family="OCRA"
      fill="#ffffff">2</text>
    <text
      font-size="35"
      gorn="0.3.137"
      y="1621.3005"
      id="text578"
      x="-76.402939"
      transform="rotate(-90)"
      font-family="OCRA"
      fill="#ffffff">15</text>
    <text
      font-size="35"
      gorn="0.3.138"
      y="1621.3005"
      id="text602"
      x="-982.00934"
      transform="rotate(-90)"
      font-family="OCRA"
      fill="#ffffff">USB</text>
    <text
      font-size="35"
      gorn="0.3.139"
      y="1421.3004"
      id="text626"
      x="-973.4032"
      transform="rotate(-90)"
      font-family="OCRA"
      fill="#ffffff">13</text>
    <text
      font-size="35"
      gorn="0.3.140"
      y="1321.3004"
      id="text650"
      x="-973.4032"
      transform="rotate(-90)"
      font-family="OCRA"
      fill="#ffffff">12</text>
    <text
      font-size="35"
      gorn="0.3.141"
      y="1221.3004"
      id="text674"
      x="-973.4032"
      transform="rotate(-90)"
      font-family="OCRA"
      fill="#ffffff">14</text>
    <text
      font-size="35"
      gorn="0.3.142"
      y="1121.3003"
      id="text698"
      x="-973.4032"
      transform="rotate(-90)"
      font-family="OCRA"
      fill="#ffffff">27</text>
    <text
      font-size="35"
      gorn="0.3.143"
      y="1021.3003"
      id="text722"
      x="-973.4032"
      transform="rotate(-90)"
      font-family="OCRA"
      fill="#ffffff">26</text>
    <text
      font-size="35"
      gorn="0.3.144"
      y="921.30029"
      id="text746"
      x="-973.4032"
      transform="rotate(-90)"
      font-family="OCRA"
      fill="#ffffff">25</text>
    <text
      font-size="35"
      gorn="0.3.145"
      y="1521.3005"
      id="text770"
      x="-973.4032"
      transform="rotate(-90)"
      font-family="OCRA"
      fill="#ffffff">EN</text>
    <text
      font-size="35"
      gorn="0.3.146"
      y="621.30017"
      id="text794"
      x="-973.4032"
      transform="rotate(-90)"
      font-family="OCRA"
      fill="#ffffff">34</text>
    <text
      font-size="35"
      gorn="0.3.147"
      y="821.30023"
      id="text818"
      x="-973.4032"
      transform="rotate(-90)"
      font-family="OCRA"
      fill="#ffffff">33</text>
    <text
      font-size="35"
      gorn="0.3.148"
      y="721.30023"
      id="text842"
      x="-973.4032"
      transform="rotate(-90)"
      font-family="OCRA"
      fill="#ffffff">32</text>
    <text
      font-size="35"
      gorn="0.3.149"
      y="521.30017"
      id="text866"
      x="-973.4032"
      transform="rotate(-90)"
      font-family="OCRA"
      fill="#ffffff">VN</text>
    <text
      font-size="35"
      gorn="0.3.150"
      y="421.30014"
      id="text890"
      x="-973.4032"
      transform="rotate(-90)"
      font-family="OCRA"
      fill="#ffffff">VP</text>
    <text
      font-size="35"
      gorn="0.3.151"
      y="321.30008"
      id="text914"
      x="-973.4032"
      transform="rotate(-90)"
      font-family="OCRA"
      fill="#ffffff">RS</text>
    <text
      font-size="35"
      gorn="0.3.152"
      y="221.38342"
      id="text938"
      x="-972.96832"
      transform="rotate(-90)"
      font-family="OCRA"
      fill="#ffffff">3V</text>
    <rect
      gorn="0.3.153"
      width="241.00008"
      y="129.21339"
      id="rect940"
      x="2007.8773"
      height="303.23465"
      fill="#bec0c2"
      stroke-width="13.88885593"
    />
    <rect
      gorn="0.3.154"
      width="105.82253"
      y="478.75101"
      id="rect946"
      x="2092.3281"
      height="62.614754"
      fill="#bec0c2"
      stroke-width="13.88885403"
    />
    <circle
      gorn="0.3.155"
      id="circle948"
      cy="510.71567"
      cx="2145.3003"
      r="21"
      fill="#231f20"
      stroke-width="13.88885403"
    />
    <rect
      gorn="0.3.157"
      width="604.16663"
      y="228.0274"
      id="rect998"
      x="200.00032"
      height="542.12244"
      fill="#5f5758"
      stroke-width="13.88885498"
    />
    <rect
      gorn="0.3.158"
      width="127.90277"
      y="220.38788"
      id="rect1030"
      x="1716.1946"
      height="114.77723"
      fill="#524b4c"
      stroke-width="13.88885498"
    />
    <text
      x="-1770.656"
      id="text1058"
      y="-456.32355"
      gorn="0.3.159.0"
      font-size="130"
      transform="scale(-1)"
      font-family="OCRA"
      fill="#ffffff"
      stroke-width="13.88885498">LOLIND32</text>
    <rect
      gorn="0.3.160"
      width="51.569443"
      y="896.98309"
      id="rect8017"
      x="1725.8499"
      height="103.16618"
      fill="#454545"
      stroke-width="13.88885498"
    />
    <polygon
      id="polygon8019"
      points="115.2,70.141 115.2,66.428 117.061,64.572 117.061,71.998 "
      gorn="0.3.161.0"
      transform="matrix(13.888888,0,0,13.888822,100.00275,0.15430482)"
      fill="#454545"
    />
    <polygon
      id="polygon8021"
      points="120.771,71.998 120.771,64.572 122.63,66.428 122.63,70.141 "
      gorn="0.3.162.0"
      transform="matrix(13.888888,0,0,13.888822,100.00275,0.15430482)"
      fill="#454545"
    />
    <rect
      gorn="0.3.163"
      width="18.222221"
      y="936.94141"
      id="connector15pin"
      x="1742.4888"
      height="23.166555"
      fill="#b68b2d"
      stroke-width="13.88885498"
    />
    <rect
      gorn="0.3.164"
      width="51.583332"
      y="0.00030978801"
      id="rect8025"
      x="1722.7804"
      height="103.15228"
      fill="#454545"
      stroke-width="13.88885498"
    />
    <polygon
      id="polygon8027"
      points="88.027,-0.001 88.027,7.425 86.171,5.566 86.171,1.854 "
      gorn="0.3.165.0"
      transform="matrix(13.888888,0,0,13.888822,500.18328,0.01388882)"
      fill="#454545"
    />
    <polygon
      id="polygon8029"
      points="93.6,1.854 93.6,5.566 91.74,7.425 91.74,-0.001 "
      gorn="0.3.166.0"
      transform="matrix(13.888888,0,0,13.888822,500.18328,0.01388882)"
      fill="#454545"
    />
    <rect
      gorn="0.3.167"
      width="18.222221"
      y="39.944237"
      id="connector18pin"
      x="1739.4747"
      height="23.166555"
      fill="#b68b2d"
      stroke-width="13.88885498"
    />
    <rect
      gorn="0.3.187"
      width="152.99477"
      y="840.35547"
      id="rect8071"
      x="32.298897"
      height="139.39458"
      fill="#1e2c5c"
      fill-opacity="1"
      stroke-width="13.88885498"
    />
    <rect
      gorn="0.3.188"
      width="152.99477"
      y="19.287327"
      id="rect8073"
      x="23.799185"
      height="139.39458"
      fill="#1e2c5c"
      fill-opacity="1"
      stroke-width="13.88885498"
    />
    <text
      font-size="35"
      gorn="0.3.189"
      y="1721.3005"
      id="text8079"
      x="-982.4032"
      transform="rotate(-90)"
      font-family="OCRA"
      fill="#ffffff">BAT</text>
    <text
      font-size="35"
      gorn="0.3.190"
      y="1721.3005"
      id="text8081"
      x="-91.402939"
      transform="rotate(-90)"
      font-family="OCRA"
      fill="#ffffff">GND</text>
    <text
      x="-2177.9587"
      id="text8099"
      y="-37.470421"
      gorn="0.3.195.0"
      font-size="35"
      transform="scale(-1)"
      font-family="OCRA"
      fill="#ffffff">V1.0.0</text>
    <ellipse
      gorn="0.3.196"
      id="path8110"
      cy="78.89296"
      cx="78.74028"
      rx="39.37014"
      ry="39.369953"
      fill="#ffffff"
      fill-opacity="1"
      stroke-width="13.88885498"
    />
    <ellipse
      gorn="0.3.197"
      id="circle8112"
      cy="921.40973"
      cx="78.74028"
      rx="39.37014"
      ry="39.369953"
      fill="#ffffff"
      fill-opacity="1"
      stroke-width="13.88885498"
    />
    <rect
      gorn="0.3.0"
      width="152.99477"
      y="2051.8279"
      id="rect8077"
      x="-744.83588"
      height="139.39458"
      transform="rotate(-90)"
      fill="#1e2c5c"
      fill-opacity="1"
      stroke-width="13.88885498"
    />
    <rect
      gorn="0.3.184"
      width="360.90198"
      y="1954.1213"
      id="rect8065"
      x="-980.25641"
      height="299.99905"
      transform="rotate(-90)"
      fill="#ffeeaa"
      fill-opacity="1"
      stroke-width="13.88885498"
    />
    <rect
      gorn="0.3.185"
      width="21.524242"
      y="1953.5441"
      id="rect8067"
      x="-919.33344"
      height="253.29013"
      transform="rotate(-90)"
      fill="#cccccc"
      fill-opacity="1"
      stroke-width="13.88885498"
    />
    <rect
      gorn="0.3.186"
      width="26.624067"
      y="1954.1663"
      id="rect8069"
      x="-725.68451"
      height="253.29013"
      transform="rotate(-90)"
      fill="#cccccc"
      fill-opacity="1"
      stroke-width="13.88885498"
    />
    <rect
      gorn="0.3.198"
      width="18.228374"
      y="2158.6135"
      id="connector16pin"
      x="-869.96185"
      height="23.166555"
      transform="rotate(-90)"
      fill="#b68b2d"
      stroke-width="13.88885498"
    />
    <rect
      gorn="0.3.199"
      width="18.228374"
      y="2158.6152"
      id="connector17pin"
      x="-769.96173"
      height="23.166555"
      transform="rotate(-90)"
      fill="#b68b2d"
      stroke-width="13.88885498"
    />
    <text
      font-size="35"
      gorn="0.3.200"
      y="921.91968"
      id="text3535"
      x="1900.1495"
      font-family="OCRA"
      fill="#ffffff">+</text>
    <text
      font-size="35"
      gorn="0.3.201"
      y="1922.9586"
      id="text3537"
      x="-751.71002"
      transform="rotate(-90)"
      font-family="OCRA"
      fill="#ffffff">CHG</text>
    <circle
      cx="1873.1074"
      cy="60.69735"
      id="ellipse4416"
      gorn="0.3.196"
      r="39"
      fill="#ffffff"
      fill-opacity="1"
      stroke-width="13.88885498"
    />
    <text
      x="2073.8113"
      id="text996"
      y="588.46991"
      gorn="0.3.156.0"
      font-size="35"
      font-family="OCRA"
      fill="#ffffff">RESET</text>
  </g>
</svg>
